<svg width="80" height="80" fill="none" viewBox="0 0 77.65 77.65" xmlns="http://www.w3.org/2000/svg">
<path d="M40.61,34.22a4.21,4.21,0,1,0,0,8.41,4.21,4.21,0,1,0,0-8.41Z" transform="translate(-0.67 -0.67)" style="fill:#162f5c"/>
<path d="M53,34.22a4.21,4.21,0,1,0,4.16,4.24A4.21,4.21,0,0,0,53,34.22Z" transform="translate(-0.67 -0.67)" style="fill:#162f5c"/>
<path d="M28.29,34.22a4.21,4.21,0,1,0,4.25,4.24A4.21,4.21,0,0,0,28.29,34.22Z" transform="translate(-0.67 -0.67)" style="fill:#162f5c"/>
<path d="M39.5.67A38.83,38.83,0,1,0,78.33,39.5,38.84,38.84,0,0,0,39.5.67ZM58.76,51.78a30.55,30.55,0,0,1-18.44,5.81,32.69,32.69,0,0,1-7-.73C27.62,60.3,22.52,62,15.15,61.24a12.6,12.6,0,0,0,5.34-10.61c-3.85-3.53-6.22-8-6.22-13,0-5.57,2.95-10.49,7.62-14.09a30,30,0,0,1,18.43-5.9,30,30,0,0,1,18.44,5.9c4.67,3.6,7.62,8.52,7.62,14.09S63.43,48.17,58.76,51.78Z" transform="translate(-0.67 -0.67)" style="fill:#162f5c"/></svg>

